<svg xmlns="http://www.w3.org/2000/svg" width="327" height="398" viewBox="0 0 327 398">
  <g id="Group_9" data-name="Group 9" transform="translate(-25 -186)">
    <g id="Rectangle_1" data-name="Rectangle 1" transform="translate(25 186)" fill="none" stroke="#fff" stroke-width="1">
      <rect width="327" height="398" stroke="none"/>
      <rect x="0.5" y="0.5" width="326" height="397" fill="none"/>
    </g>
    <path id="Subtraction_1" data-name="Subtraction 1" d="M-1008.5,75.5h-326V.5h326v75Zm-91.46-51.9a16.042,16.042,0,0,0-7.72,1.86,13.842,13.842,0,0,0-5.4,5.16A14.25,14.25,0,0,0-1115.04,38a14.245,14.245,0,0,0,1.959,7.38,13.838,13.838,0,0,0,5.4,5.161,16.052,16.052,0,0,0,7.72,1.859,16.047,16.047,0,0,0,7.72-1.859,13.885,13.885,0,0,0,5.4-5.141,14.205,14.205,0,0,0,1.96-7.4,14.21,14.21,0,0,0-1.96-7.4,13.884,13.884,0,0,0-5.4-5.14A16.037,16.037,0,0,0-1099.96,23.6ZM-1152.08,45l-1.8,4.04a13.12,13.12,0,0,0,4.78,2.44,21.473,21.473,0,0,0,6.26.92,15.62,15.62,0,0,0,6.24-1.12,8.617,8.617,0,0,0,3.82-3,7.409,7.409,0,0,0,1.26-4.2,6.3,6.3,0,0,0-1.42-4.32,8.816,8.816,0,0,0-3.42-2.381,38.146,38.146,0,0,0-5.12-1.5c-1.505-.37-2.716-.706-3.6-1a6.242,6.242,0,0,1-2.18-1.2,2.507,2.507,0,0,1-.86-1.96,3.22,3.22,0,0,1,1.5-2.759,8.139,8.139,0,0,1,4.58-1.04,14.465,14.465,0,0,1,3.88.56,16.248,16.248,0,0,1,3.839,1.641l1.641-4.04a14,14,0,0,0-4.28-1.84,20.184,20.184,0,0,0-5.04-.64,15.462,15.462,0,0,0-6.22,1.12,8.559,8.559,0,0,0-3.8,3.02,7.5,7.5,0,0,0-1.26,4.22,6.439,6.439,0,0,0,1.42,4.38,8.557,8.557,0,0,0,3.4,2.38,42.205,42.205,0,0,0,5.18,1.52c1.515.372,2.727.709,3.6,1a6.063,6.063,0,0,1,2.18,1.22,2.568,2.568,0,0,1,.86,1.98,3.043,3.043,0,0,1-1.54,2.64,8.716,8.716,0,0,1-4.66,1,15.416,15.416,0,0,1-5.02-.859,14.247,14.247,0,0,1-4.22-2.22Zm98.64-1.2h0l5.72,8.2h5.6l-6.44-9.2a9.2,9.2,0,0,0,4.42-3.4,9.53,9.53,0,0,0,1.541-5.441,9.679,9.679,0,0,0-1.44-5.32,9.264,9.264,0,0,0-4.14-3.44,15.574,15.574,0,0,0-6.341-1.2h-11.52V52h5.2V43.84h6.32c.474,0,.838-.013,1.079-.04ZM-1177.6,24V52h5.2V24Zm-45.841,0h0l12.24,28h5.12l12.2-28h-5.2l-9.4,21.6L-1217.8,24h-5.64Zm-41.52,0V52h12.24a17.638,17.638,0,0,0,7.96-1.741,12.929,12.929,0,0,0,5.4-4.919A13.98,13.98,0,0,0-1237.44,38a13.974,13.974,0,0,0-1.921-7.34,12.932,12.932,0,0,0-5.4-4.92,17.639,17.639,0,0,0-7.96-1.74Zm-39.12,21.52h14l2.8,6.48h5.44l-12.64-28h-5.12l-12.6,28h5.36l2.759-6.479Zm204.12,2.32a10.149,10.149,0,0,1-5.04-1.26,9.158,9.158,0,0,1-3.52-3.521A10.132,10.132,0,0,1-1109.8,38a10.132,10.132,0,0,1,1.28-5.06,9.153,9.153,0,0,1,3.52-3.52,10.149,10.149,0,0,1,5.04-1.26,10.148,10.148,0,0,1,5.04,1.26,9.149,9.149,0,0,1,3.52,3.52A10.125,10.125,0,0,1-1090.12,38a10.125,10.125,0,0,1-1.281,5.06,9.154,9.154,0,0,1-3.52,3.521A10.148,10.148,0,0,1-1099.96,47.84Zm-153-.24h-6.8V28.4h6.8a11.936,11.936,0,0,1,5.42,1.18,8.482,8.482,0,0,1,3.6,3.36A9.978,9.978,0,0,1-1242.68,38a9.973,9.973,0,0,1-1.259,5.06,8.482,8.482,0,0,1-3.6,3.361A11.936,11.936,0,0,1-1252.96,47.6Zm-38.839-6.16h-10.52l5.24-12.24,5.28,12.239Zm237.039-1.879h-6.08V28.4h6.08a8.024,8.024,0,0,1,5.161,1.44,5.039,5.039,0,0,1,1.76,4.119,5.1,5.1,0,0,1-1.76,4.14A7.944,7.944,0,0,1-1054.76,39.56Z" transform="translate(1360 508)" fill="#fff"/>
  </g>
</svg>
